<?xml version="1.0" encoding="utf-8"?>
<!-- Generator: Adobe Illustrator 23.0.4, SVG Export Plug-In . SVG Version: 6.00 Build 0)  -->
<svg version="1.1" id="Layer_1" xmlns="http://www.w3.org/2000/svg" xmlns:xlink="http://www.w3.org/1999/xlink" x="0px" y="0px"
	 viewBox="0 0 46 46" style="enable-background:new 0 0 46 46;" xml:space="preserve">
<style type="text/css">
	.st0{fill-rule:evenodd;clip-rule:evenodd;fill:#E20613;}
	.st1{fill-rule:evenodd;clip-rule:evenodd;fill:#FFFFFF;}
</style>
<g>
	<polygon class="st0" points="0,0 46,0 46,46 0,46 0,0 	"/>
</g>
<g>
	<path class="st1" d="M36.3,20.9v4.2h1.5v-1.5h0.5l1.8,1.5h2.2L39.7,23l2.4-2.1H40l-1.7,1.5h-0.6v-1.5L36.3,20.9L36.3,20.9z
		 M7.1,20.9h1l2.3,4.2H8.8l-0.4-0.7H7.1H5.8l-0.4,0.7H3.8l2.3-4.2H7.1L7.1,20.9z M7.1,23.3h0.7l-0.7-1.2l0,0l-0.7,1.2H7.1L7.1,23.3z
		 M10.6,20.9v4.2h1.5v-1.5h0.5l1.8,1.5h2.2L14.1,23l2.4-2.1h-2.1l-1.7,1.5h-0.6v-1.5L10.6,20.9L10.6,20.9z M19.5,20.9
		c0.6,0,1.1,0,1.7,0c0.3,0,0.7,0.2,0.9,0.7c0.1,0.4,0,1.1-0.3,1.4c0.3,0.1,0.4,0.5,0.5,0.9v0.2c0,0.1,0,0.1,0,0.2
		c-0.1,0.5-0.5,0.8-0.8,0.8c-0.7,0-1.3,0-2,0c-0.9,0-1.7,0-2.6,0c0-1.4,0-2.8,0-4.2C17.8,20.9,18.7,20.9,19.5,20.9L19.5,20.9z
		 M19.5,23.9h1.1c0.1,0,0.2-0.1,0.2-0.2c0-0.1-0.1-0.2-0.2-0.2h-1.1l-1.2,0v0.4H19.5L19.5,23.9z M19.5,22.4h1c0.1,0,0.2-0.1,0.2-0.2
		c0-0.1-0.1-0.2-0.2-0.2l-1,0l-1.2,0v0.4H19.5L19.5,22.4z M29.4,20.9v4.2h1.5v-2.8l2.1,2.8h2.4v-4.2h-1.5v2.9l-2.2-2.9L29.4,20.9
		L29.4,20.9z M25.8,20.9h1l2.3,4.2h-1.6l-0.4-0.7h-1.3h-1.3l-0.4,0.7h-1.7l2.3-4.2H25.8L25.8,20.9z M25.8,23.3h0.7l-0.7-1.2l0,0
		l-0.7,1.2H25.8L25.8,23.3z"/>
</g>
</svg>
