<?xml version="1.0" encoding="utf-8"?>
<!-- Generator: Adobe Illustrator 26.0.1, SVG Export Plug-In . SVG Version: 6.00 Build 0)  -->
<svg version="1.1" id="Layer_1" xmlns="http://www.w3.org/2000/svg" xmlns:xlink="http://www.w3.org/1999/xlink" x="0px" y="0px"
	 viewBox="0 0 46 46" style="enable-background:new 0 0 46 46;" xml:space="preserve">
<style type="text/css">
	.st0{fill-rule:evenodd;clip-rule:evenodd;fill:#8B959E;}
	.st1{fill:#FFFFFF;}
</style>
<g>
	<path class="st0" d="M0,0h45.5C45.8,0,46,0.2,46,0.5v45c0,0.3-0.2,0.5-0.5,0.5h-45C0.2,46,0,45.8,0,45.5V0L0,0z"/>
</g>
<path class="st1" d="M23,12.1c-3.2,0-5.8,2.6-5.8,5.8s2.6,5.8,5.8,5.8s5.8-2.6,5.8-5.8S26.2,12.1,23,12.1z M23,21.3
	c-1.9,0-3.5-1.5-3.5-3.4c0-1.9,1.5-3.5,3.5-3.5s3.5,1.5,3.5,3.5C26.5,19.7,24.9,21.3,23,21.3z M33.3,33.9v-1.1c0-4.4-3.6-8.1-8-8.1
	h-4.6c-4.4,0-8.1,3.6-8.1,8.1v1.1h2.3v-1.1c0-3.2,2.6-5.8,5.8-5.8h4.6c3.2,0,5.8,2.6,5.8,5.8v1.1H33.3z"/>
</svg>
