<?xml version="1.0" encoding="utf-8"?>
<!-- Generator: Adobe Illustrator 23.0.4, SVG Export Plug-In . SVG Version: 6.00 Build 0)  -->
<svg version="1.1" id="Layer_1" xmlns="http://www.w3.org/2000/svg" xmlns:xlink="http://www.w3.org/1999/xlink" x="0px" y="0px"
	 viewBox="0 0 46 46" style="enable-background:new 0 0 46 46;" xml:space="preserve">
<style type="text/css">
	.st0{fill:url(#SVGID_1_);}
	.st1{clip-path:url(#SVGID_3_);}
	.st2{fill:#FFFFFF;}
</style>
<radialGradient id="SVGID_1_" cx="23" cy="23" r="37.603" gradientUnits="userSpaceOnUse">
	<stop  offset="0" style="stop-color:#99D747"/>
	<stop  offset="0.1305" style="stop-color:#8DCB44"/>
	<stop  offset="0.3642" style="stop-color:#6EAC3B"/>
	<stop  offset="0.6177" style="stop-color:#468430"/>
</radialGradient>
<rect class="st0" width="46" height="46"/>
<g>
	<defs>
		<path id="SVGID_2_" d="M34.1,30c-0.3,0.9-0.7,1.6-1.1,2.1c-1.4-5.2-3.8-7.9-5-8.9c1,0,2.8,0.3,4.7,2.2
			C34.1,26.8,34.5,28.4,34.1,30z M27.2,23.7c-0.1,0.5-0.2,1.3-0.2,2.4c0,0,0,0.5,0,0.5c0,1.7,0,6.4,1.6,8c0.4,0.4,0.9,0.6,1.5,0.6
			c0,0,0,0,0,0l0,0c0.1,0,1.6,0.2,2-2.2C32.1,32.2,30.4,26.3,27.2,23.7z M24.7,23.6c-0.9-0.3-4.2-0.9-9.1,2.3
			c-2.5,1.6-3.7,3.5-3.6,5.3c0.1,1.7,1.4,3.3,3.4,4.3C16.2,35.1,21.4,31.6,24.7,23.6z M23.7,36.6L23.7,36.6L23.7,36.6
			C23.7,36.5,23.7,36.6,23.7,36.6z M25.3,24.6c-1.6,4.1-3.9,7.1-5.6,8.9c-1.6,1.7-2.9,2.8-3.4,3.1c0.2,0.7,1.2,3.4,3.3,3.4
			c2.5,0,4-3.5,4-3.5c0,0,0,0,0,0l0,0C23.8,36.3,26.7,30.1,25.3,24.6z M34.1,14.5c-0.2-0.8-0.6-1.4-1-1.7c-0.2,0.6-0.5,1.6-1.1,2.9
			c-0.8,1.6-2.2,3.9-4.6,5.9c1.1,0.2,3.5,0.2,5.6-3C34,17.1,34.4,15.7,34.1,14.5z M30.5,9c-0.6,0-1.1,0.1-1.5,0.5
			c-1.8,1.6-2.1,6.3-2.2,8c0,0,0,0.3,0,0.3c-0.1,1.1,0,2.4,0.1,3c4-3.3,5.4-8.2,5.6-8.9C32.3,9.2,30.6,9,30.5,9z M25.4,17.8
			c-0.1-6.5-2.2-11-5.5-11.8c-0.7-0.2-1.4-0.1-1.9,0.3c-1.1,0.7-1.7,2.2-1.8,2.8c3.7,2.3,6,5.3,7.3,7.5c0.9,1.4,1.4,2.6,1.7,3.4
			C25.4,18.8,25.4,17.8,25.4,17.8z M15.3,10.1c-2.2,0.9-3.5,2.5-3.5,4.4c0,1.2,0.4,2.3,1.3,3.4c0.9,1.1,2.1,2.1,3.6,2.7
			c4.7,2,7.3,0.8,8,0.4C21.7,13.8,16.1,10.5,15.3,10.1z"/>
	</defs>
	<use xlink:href="#SVGID_2_"  style="overflow:visible;fill:#FFFFFF;"/>
	<clipPath id="SVGID_3_">
		<use xlink:href="#SVGID_2_"  style="overflow:visible;"/>
	</clipPath>
	<g class="st1">
		<path class="st2" d="M25.7,51.2C34.1,51.3,41,38.4,41,22.4c0-15.9-6.9-28.9-15.3-29C17.2-6.6,10.3,6.2,10.3,22.2
			C10.3,38.1,17.2,51.1,25.7,51.2z"/>
	</g>
</g>
</svg>
