<?xml version="1.0" encoding="utf-8"?>
<!-- Generator: Adobe Illustrator 23.0.4, SVG Export Plug-In . SVG Version: 6.00 Build 0)  -->
<svg version="1.1" id="Layer_1" xmlns="http://www.w3.org/2000/svg" xmlns:xlink="http://www.w3.org/1999/xlink" x="0px" y="0px"
	 viewBox="0 0 46 46" style="enable-background:new 0 0 46 46;" xml:space="preserve">
<style type="text/css">
	.st0{fill-rule:evenodd;clip-rule:evenodd;fill:#00428A;}
	.st1{fill:#FFFFFF;}
</style>
<g>
	<polygon class="st0" points="0,0 46,0 46,46 0,46 0,0 	"/>
</g>
<g>
	<path class="st1" d="M19.8,11v0.5c0,0,1.3,0.1,1.3,1.2c0,1.2,0,8.1,0,8.1l3.3,1.9v-10c0,0-0.1-1.2,1.3-1.2V11L19.8,11z"/>
	<path class="st1" d="M24.8,13.9v0.8c0,0,3,1.2,3.2,4.8h0.5v-5.6h-0.5c0,0-0.3,0.8-1.1,0.8C26.2,14.7,24.8,13.9,24.8,13.9z"/>
	<path class="st1" d="M20.7,13.6v0.7c0,0-3,0.5-3,3.2c0,0-0.2,2.1,3.4,4l4.5,2.5c0,0,3.2,1.5,4.2,4.1c1,2.6,0.3,6.1-2.9,7.8
		c-1.3,0.7-2.5,0.8-3,0.8c0,0,1.1,0.5,1.1,1.9s-1.5,3.4-2.1,3.4h-0.4c0,0-0.1-0.1,0.1-0.3c0.2-0.2,1.1-1.3,0.9-1.9
		c0,0-0.5,0.2-1.1,0.2c-0.5,0-1.5-0.5-1.5-1.6s0.9-1.7,1.2-1.7c0,0-0.5-0.1-2.1-0.6s-2.9-1.1-3.7,0.3H16v-5.9h0.5c0,0,1.2,5.6,7,5.6
		c4,0,4.5-3.4,4.5-4c0-0.6,0-2.5-3-4.2c-3-1.7-5.9-3.3-5.9-3.3s-3.4-1.6-3.4-5.3C15.7,15.3,19.2,13.6,20.7,13.6z"/>
	<path class="st1" d="M21.1,25.9l3.3,1.9v3.8c0,0,0,1.2,1.3,1.2v0.5h-5.9v-0.6c0,0,1.3,0,1.3-1.2S21.1,25.9,21.1,25.9z"/>
	<path class="st1" d="M24.6,7.9c0-1-0.8-1.8-1.8-1.8c-1,0-1.8,0.8-1.8,1.8c0,1,0.8,1.8,1.8,1.8C23.8,9.8,24.6,8.9,24.6,7.9z"/>
</g>
</svg>
