<?xml version="1.0" encoding="utf-8"?>
<!-- Generator: Adobe Illustrator 23.0.4, SVG Export Plug-In . SVG Version: 6.00 Build 0)  -->
<svg version="1.1" id="Layer_1" xmlns="http://www.w3.org/2000/svg" xmlns:xlink="http://www.w3.org/1999/xlink" x="0px" y="0px"
	 viewBox="0 0 46 46" style="enable-background:new 0 0 46 46;" xml:space="preserve">
<style type="text/css">
	.st0{fill-rule:evenodd;clip-rule:evenodd;fill:#868685;}
	.st1{clip-path:url(#SVGID_2_);fill:url(#SVGID_3_);}
	.st2{clip-path:url(#SVGID_5_);fill:url(#SVGID_6_);}
	.st3{clip-path:url(#SVGID_8_);fill:url(#SVGID_9_);}
	.st4{clip-path:url(#SVGID_11_);fill:url(#SVGID_12_);}
</style>
<g>
	<path class="st0" d="M20,35.9l-6.7,6.7l-0.5-0.3c-1.4-0.7-2.8-1.6-4-2.6L8.1,39l12.3-12.3c0.7-0.7,1.6-1.1,2.6-1.1
		c1,0,1.9,0.4,2.6,1.1L37.9,39l-0.7,0.6c-1.2,1-2.6,2-4,2.6l-0.5,0.3L26,35.9v8.7l-0.7,0.1c-0.8,0.1-1.5,0.2-2.3,0.2
		c-0.8,0-1.5-0.1-2.3-0.2L20,44.5V35.9z M35.9,26l6.7,6.7l-0.3,0.5c-0.7,1.4-1.6,2.8-2.6,4L39,37.9L26.7,25.6
		c-0.7-0.7-1.1-1.6-1.1-2.6c0-1,0.4-1.9,1.1-2.6L39,8.1l0.6,0.7c1,1.2,2,2.6,2.6,4l0.3,0.5L35.9,20h8.7l0.1,0.7
		c0.1,0.8,0.2,1.5,0.2,2.3c0,0.8-0.1,1.5-0.2,2.3L44.5,26H35.9z M26,10.1l6.7-6.7l0.5,0.3c1.4,0.7,2.8,1.6,4,2.6L37.9,7L25.6,19.3
		c-0.7,0.7-1.6,1.1-2.6,1.1c-1,0-1.9-0.4-2.6-1.1L8.1,7l0.7-0.6c1.2-1,2.6-2,4-2.6l0.5-0.3l6.7,6.7V1.5l0.7-0.1
		c0.8-0.1,1.5-0.2,2.3-0.2c0.8,0,1.5,0.1,2.3,0.2L26,1.5V10.1z M10.1,20l-6.7-6.7l0.3-0.5c0.7-1.4,1.6-2.8,2.6-4L7,8.1l12.3,12.3
		c0.7,0.7,1.1,1.6,1.1,2.6c0,1-0.4,1.9-1.1,2.6L7,37.9l-0.6-0.7c-1-1.2-2-2.6-2.6-4l-0.3-0.5l6.7-6.7H1.5l-0.1-0.7
		c-0.1-0.8-0.2-1.5-0.2-2.3c0-0.8,0.1-1.5,0.2-2.3L1.5,20H10.1z"/>
	<g>
		<defs>
			<path id="SVGID_1_" d="M2,23c0-0.7,0.1-1.4,0.2-2.1h10l-7.7-7.7C5.1,11.9,6,10.7,7,9.4L18.7,21c0.5,0.5,0.8,1.3,0.8,2
				c0,0.7-0.3,1.4-0.8,2L7,36.6c-1-1.3-1.9-2.5-2.5-3.8l7.7-7.7h-10C2,24.4,2,23.7,2,23"/>
		</defs>
		<clipPath id="SVGID_2_">
			<use xlink:href="#SVGID_1_"  style="overflow:visible;"/>
		</clipPath>
		<linearGradient id="SVGID_3_" gradientUnits="userSpaceOnUse" x1="1.9892" y1="23" x2="19.4782" y2="23">
			<stop  offset="0" style="stop-color:#003A73"/>
			<stop  offset="0.35" style="stop-color:#003A73"/>
			<stop  offset="0.73" style="stop-color:#0062AE"/>
			<stop  offset="1" style="stop-color:#0062AE"/>
		</linearGradient>
		<rect x="2" y="9.4" class="st1" width="17.5" height="27.2"/>
	</g>
	<g>
		<defs>
			<path id="SVGID_4_" d="M23,2c0.7,0,1.4,0.1,2.1,0.2v10l7.7-7.7C34.1,5.1,35.3,6,36.6,7L25,18.7c-0.5,0.5-1.3,0.8-2,0.8
				c-0.7,0-1.4-0.3-2-0.8L9.4,7c1.3-1,2.5-1.9,3.8-2.5l7.7,7.7v-10C21.6,2,22.3,2,23,2"/>
		</defs>
		<clipPath id="SVGID_5_">
			<use xlink:href="#SVGID_4_"  style="overflow:visible;"/>
		</clipPath>
		<linearGradient id="SVGID_6_" gradientUnits="userSpaceOnUse" x1="9.3833" y1="10.7337" x2="36.6167" y2="10.7337">
			<stop  offset="0" style="stop-color:#AA004C"/>
			<stop  offset="0.35" style="stop-color:#AA004C"/>
			<stop  offset="0.61" style="stop-color:#760030"/>
			<stop  offset="1" style="stop-color:#1A1A18"/>
		</linearGradient>
		<rect x="9.4" y="2" class="st2" width="27.2" height="17.5"/>
	</g>
	<g>
		<defs>
			<path id="SVGID_7_" d="M44,23c0,0.7-0.1,1.4-0.2,2.1h-10l7.7,7.7c-0.6,1.3-1.5,2.5-2.5,3.8L27.3,25c-0.5-0.5-0.8-1.3-0.8-2
				c0-0.7,0.3-1.4,0.8-2L39,9.4c1,1.3,1.9,2.5,2.5,3.8l-7.7,7.7h10C44,21.6,44,22.3,44,23"/>
		</defs>
		<clipPath id="SVGID_8_">
			<use xlink:href="#SVGID_7_"  style="overflow:visible;"/>
		</clipPath>
		<linearGradient id="SVGID_9_" gradientUnits="userSpaceOnUse" x1="26.5218" y1="23" x2="44.0107" y2="23">
			<stop  offset="0" style="stop-color:#0062AE"/>
			<stop  offset="0.27" style="stop-color:#0062AE"/>
			<stop  offset="0.65" style="stop-color:#003A73"/>
			<stop  offset="1" style="stop-color:#003A73"/>
		</linearGradient>
		<rect x="26.5" y="9.4" class="st3" width="17.5" height="27.2"/>
	</g>
	<g>
		<defs>
			<path id="SVGID_10_" d="M23,44c-0.7,0-1.4-0.1-2.1-0.2v-10l-7.7,7.7c-1.3-0.6-2.5-1.5-3.8-2.5L21,27.3c0.5-0.5,1.3-0.8,2-0.8
				c0.7,0,1.4,0.3,2,0.8L36.6,39c-1.3,1-2.5,1.9-3.8,2.5l-7.7-7.7v10C24.4,44,23.7,44,23,44"/>
		</defs>
		<clipPath id="SVGID_11_">
			<use xlink:href="#SVGID_10_"  style="overflow:visible;"/>
		</clipPath>
		<linearGradient id="SVGID_12_" gradientUnits="userSpaceOnUse" x1="23" y1="44.0107" x2="23" y2="26.5218">
			<stop  offset="0" style="stop-color:#003A73"/>
			<stop  offset="0.35" style="stop-color:#003A73"/>
			<stop  offset="0.73" style="stop-color:#0062AE"/>
			<stop  offset="1" style="stop-color:#0062AE"/>
		</linearGradient>
		<rect x="9.4" y="26.5" class="st4" width="27.2" height="17.5"/>
	</g>
</g>
</svg>
