<?xml version="1.0" encoding="utf-8"?>
<!-- Generator: Adobe Illustrator 23.0.4, SVG Export Plug-In . SVG Version: 6.00 Build 0)  -->
<svg version="1.1" id="Layer_1" xmlns="http://www.w3.org/2000/svg" xmlns:xlink="http://www.w3.org/1999/xlink" x="0px" y="0px"
	 viewBox="0 0 46 46" style="enable-background:new 0 0 46 46;" xml:space="preserve">
<style type="text/css">
	.st0{fill-rule:evenodd;clip-rule:evenodd;fill:#008AEC;}
	.st1{fill:#FFFFFF;}
	.st2{fill:#C4C0C2;}
</style>
<g>
	<polygon class="st0" points="0,0 46,0 46,46 0,46 0,0 	"/>
</g>
<g>
	<rect x="39" y="23.3" class="st1" width="1.6" height="1.3"/>
	<path class="st1" d="M11.6,31.2l-0.1-0.3c-0.3,0.3-0.6,0.4-1.2,0.4c-0.7,0-1.1-0.6-1.1-1.3l0-1c0-1.7,2.3-1.2,2.3-2.4
		c0-0.3,0-0.5-0.3-0.5c-0.3,0-0.4,0.2-0.4,0.5v0.5H9.3v-0.5c0-1.1,0.9-1.6,2-1.6c1.3,0,1.9,0.7,1.9,1.6v4.6H11.6z M11.5,28.2
		c-0.4,0.2-0.7,0.4-0.7,0.9v0.7c0,0.4,0.1,0.5,0.3,0.5c0.2,0,0.3-0.1,0.3-0.5V28.2z"/>
	<path class="st1" d="M17.9,29.6c0,1-0.2,1.7-1.2,1.7c-0.6,0-0.9-0.2-1.2-0.5v1.8h-1.6v-7.4h1.6l0,0.6c0.3-0.6,0.6-0.7,1.2-0.7
		c0.9,0,1.1,0.8,1.1,1.6L17.9,29.6L17.9,29.6z M16.2,26.8c0-0.3-0.1-0.4-0.4-0.4c-0.2,0-0.4,0.2-0.4,0.4v2.8c0,0.3,0.1,0.4,0.4,0.4
		c0.2,0,0.4-0.1,0.4-0.4V26.8z"/>
	<rect x="18.6" y="25.2" class="st1" width="1.6" height="6"/>
	<polygon class="st1" points="24,31.2 23,28.4 22.7,28.9 22.7,31.2 21,31.2 21,23.3 22.7,23.3 22.7,25.7 23.9,23.3 25.6,23.3 
		24,26.6 25.8,31.2 	"/>
	<path class="st1" d="M29.2,26.8c-0.4-0.1-1.4-0.2-1.4,0.8v3.6h-1.6v-6h1.5l0,0.6c0.5-0.8,1.1-0.8,1.5-0.8L29.2,26.8L29.2,26.8z"/>
	<path class="st1" d="M33.6,29.7c0,1.2-0.8,1.7-2,1.7c-1,0-2-0.5-2-1.7v-2.8c0-1.1,0.7-1.8,2-1.8c1,0,2,0.4,2,1.8v1.6h-2.3v1.4
		c0,0.2,0.1,0.4,0.3,0.4c0.2,0,0.3-0.1,0.3-0.4V29h1.6L33.6,29.7L33.6,29.7z M31.9,26.5c0-0.2-0.1-0.4-0.3-0.4
		c-0.2,0-0.3,0.1-0.3,0.4v0.8H32L31.9,26.5z"/>
	<path class="st1" d="M36.7,31.2v-0.6c-0.1,0.5-0.6,0.7-1.2,0.7c-1,0-1.2-0.8-1.2-1.6v-2.9c0-1,0.2-1.8,1.2-1.8c0.6,0,1,0.2,1.2,0.5
		v-2.3h1.6v7.9H36.7z M36.7,26.7c0-0.3-0.1-0.4-0.4-0.4c-0.2,0-0.4,0.1-0.4,0.4l0,2.9c0,0.3,0.2,0.4,0.4,0.4c0.2,0,0.4-0.2,0.4-0.4
		V26.7z"/>
	<rect x="39" y="25.2" class="st1" width="1.6" height="6"/>
	<polygon class="st1" points="8.1,27.8 8.1,31.2 6.4,31.2 6.4,27.8 4.8,23.3 6.7,23.3 7.2,25.5 7.8,23.3 9.7,23.3 	"/>
	<path class="st2" d="M21,18.9c-0.6,0.5-1.4,0.7-2.1,0.4c-0.4-0.2-0.7-0.5-0.8-0.9c0.6,0.6,1.6,0.8,2.5-0.1c0,0,0.9-0.8,0.4-2.3
		c-0.2-0.7-1.2-1.4-1.9-1.4c-1.1-0.2-2.2,0.2-2.9,1.2c-0.9,1.3-1,2.9-1.6,4.4c-0.1,0.2-0.3,0.4-0.6,0.3h0h0c-0.2,0-0.4-0.1-0.6-0.3
		c-0.6-1.5-0.7-3-1.6-4.4c-0.7-1-1.8-1.4-2.9-1.2c-0.8,0.1-1.7,0.7-1.9,1.4c-0.5,1.5,0.4,2.3,0.4,2.3c0.9,1,1.9,0.7,2.5,0.1
		c-0.1,0.4-0.4,0.7-0.8,0.9c-0.7,0.3-1.5,0.1-2.1-0.4c-0.9-0.9-1-2.1-0.7-3.1c0.4-1.3,1.7-1.9,2.8-2c1.2-0.1,2.9,0.6,3.6,1.9
		c0.2,0.3,0.5,1.1,0.5,1.1l0.9,0l0.9,0c0,0,0.3-0.8,0.5-1.1c0.7-1.3,2.4-2,3.6-1.9c1,0.1,2.3,0.7,2.8,2C22,16.8,21.9,18,21,18.9
		 M23,15.4c-1-2.9-3.9-3.1-4.2-3.1c-1.3,0-2.7,0.4-3.8,1.5c-0.4,0.4-0.7,0.8-1.1,1.3l0,0l0,0c-0.3-0.5-0.6-0.9-1.1-1.3
		c-1.1-1.1-2.5-1.5-3.8-1.5c-0.3,0-3.2,0.2-4.2,3.1c-0.4,1-0.3,2.4,0.3,3.4c0.5,1.1,1.8,2.1,3.1,2c1,0,2-0.6,2.4-1.6
		c0.3-0.9,0.2-1.8-0.5-2.6c0,0.2,0,0.5-0.2,0.7c-0.3,0.4-0.8,0.5-1.3,0.3c-0.4-0.2-0.6-0.5-0.6-0.9c0-0.4,0.3-0.6,0.6-0.8
		c0.6-0.3,1.1-0.1,1.7,0.4c0.9,1,1,2.4,1.4,3.6c0.3,0.9,0.8,1.7,1.8,1.9c0.1,0,0.2,0,0.4,0h0h0c0.1,0,0.3,0,0.4,0
		c1-0.2,1.5-1,1.8-1.9c0.4-1.1,0.5-2.6,1.4-3.6c0.5-0.5,1.1-0.6,1.7-0.4c0.3,0.1,0.6,0.4,0.6,0.8c0,0.4-0.1,0.7-0.6,0.9
		c-0.5,0.2-1,0.1-1.3-0.3c-0.2-0.3-0.2-0.5-0.2-0.7c-0.8,0.8-0.9,1.7-0.5,2.6c0.4,1,1.5,1.6,2.4,1.6c1.3,0.1,2.6-0.8,3.1-2
		C23.3,17.8,23.4,16.4,23,15.4 M13.9,12.3L13.9,12.3L13.9,12.3C13.9,12.3,13.9,12.3,13.9,12.3"/>
</g>
</svg>
