<?xml version="1.0" encoding="utf-8"?>
<!-- Generator: Adobe Illustrator 23.0.4, SVG Export Plug-In . SVG Version: 6.00 Build 0)  -->
<svg version="1.1" id="Layer_1" xmlns="http://www.w3.org/2000/svg" xmlns:xlink="http://www.w3.org/1999/xlink" x="0px" y="0px"
	 viewBox="0 0 46 46" style="enable-background:new 0 0 46 46;" xml:space="preserve">
<style type="text/css">
	.st0{fill-rule:evenodd;clip-rule:evenodd;fill:#C91220;}
	.st1{fill-rule:evenodd;clip-rule:evenodd;fill:#FFFFFF;}
</style>
<g>
	<polygon class="st0" points="0,0 46,0 46,46 0,46 	"/>
</g>
<g>
	<path class="st1" d="M27.5,14l-2.3,1.8l-1.6,1.2v5.6l0.8-0.6v2.6l-0.8,0.6v5.6l0.8-0.6v2.6l-0.8,0.6v5.6l1.6-1.2l2.3-1.8l3.1-2.4
		v-9.4c0-0.4-0.3-0.8-0.6-1c0.5-0.4,0.6-0.8,0.6-1.3v-4.7v-5.6L27.5,14z M29.5,28.3c0,0.5-0.2,0.7-0.6,1.1l-1.4,1.1l-2,1.6v-2.6
		l2-1.6l1.2-0.9c0.4-0.3,0.8-0.2,0.8,0.2V28.3z M29.5,20.1c0,0.5-0.2,0.7-0.6,1.1l-1.4,1.1l-2,1.6v-2.6l2-1.6l1.2-0.9
		c0.4-0.3,0.8-0.2,0.8,0.2V20.1z"/>
	<polygon class="st1" points="26.7,13 26.7,11 25.2,12.2 24.7,12.6 24.7,10.5 25.2,10.1 26.7,8.9 26.7,6.9 25.2,8.1 23.6,9.4 
		23.6,15.5 25.2,14.2 	"/>
	<polygon class="st1" points="19.3,6.9 19.3,8.9 20.3,9.7 20.3,11.9 19.9,11.6 19.9,13.6 20.8,14.3 21.8,15.1 21.8,13.1 21.4,12.8 
		21.4,10.6 22.4,11.4 22.4,9.4 20.8,8.1 	"/>
	<polygon class="st1" points="15.4,11.6 15.4,17.2 20.8,21.5 21.5,22 20.8,22.6 20,23.4 15.4,19.8 15.4,25.4 16.9,26.6 15.4,28 
		15.4,33.6 20.8,37.9 22.4,39.1 22.4,33.5 20.8,32.3 16.3,28.7 17.8,27.3 20.8,29.7 22.4,30.9 22.4,25.3 20.9,24.1 22.4,22.7 
		22.4,17.1 20.8,15.9 	"/>
</g>
</svg>
